# xmcd CD database file
#
# Track frame offsets:
#	150
#	18773
#	50769
#	87181
#	106656
#	138781
#	184703
#	210242
#
# Disc length: 3138 seconds
#
# Revision: 0
# Processed by: cddbd v1.4PL0 Copyright (c) Steve Scherf et al.
# Submitted via: CDex 1.51
#
DISCID=580c4008
DTITLE=James Harry and  Juliana - Kindred Souls
DYEAR=1996
DGENRE=New Age
TTITLE0=James Harry/Juliana - Kindred Souls pt 1
TTITLE1=James Harry/Juliana - The Past
TTITLE2=James Harry/Juliana - Sacred and the Secular
TTITLE3=James Harry/Juliana - Kindred Souls pt 2
TTITLE4=James Harry/Juliana - Kindred Souls pt 3
TTITLE5=James Harry/Juliana - The Present
TTITLE6=James Harry/Juliana - Patterns of Life
TTITLE7=James Harry/Juliana - Kindred Souls pt 4
EXTD=YEAR: 1996
EXTT0=
EXTT1=
EXTT2=
EXTT3=
EXTT4=
EXTT5=
EXTT6=
EXTT7=
PLAYORDER=
